<?xml version="1.0" encoding="UTF-8" standalone="no"?>
<svg width="355px" height="203px" viewBox="0 0 355 203" version="1.1" xmlns="http://www.w3.org/2000/svg" xmlns:xlink="http://www.w3.org/1999/xlink">
    <!-- Generator: Sketch 3.6.1 (26313) - http://www.bohemiancoding.com/sketch -->
    <title>gopwt</title>
    <desc>Created with Sketch.</desc>
    <defs>
        <path id="path-1" d="M61.3723066,29.0074311 C61.8390271,28.3133412 57.8292261,17.2432119 52.3252332,11.5581151 C45.6331352,4.64581961 39.2353132,0.614495999 30.8999154,0.614495 C14.3967352,0.614493022 -3.52906704,24.026426 1.9581563,38.3966824 C2.5525051,39.9531972 4.2399843,35.7592678 6.34509464,29.0074309 C8.6988716,21.4580319 10.9925335,18.6920447 17.0389402,13.492693 C23.0853468,8.29334131 29.4324441,7.72640439 32.9839837,7.72640378 C39.9865294,7.72640258 44.8213464,9.9738972 52.3252332,17.5679436 C57.1830313,22.4841085 58.1130388,24.5324026 58.7866947,26.2052237 C59.1536414,27.1164252 59.4445264,27.9162206 60.2527272,29.0074311 C60.2527272,29.0074311 60.905586,29.701521 61.3723066,29.0074311 Z"></path>
        <path d="M22.7828016,82.7472608 L0.362134306,0 L36.4383956,78.0778094 C45.9400825,77.604867 54.2487339,82.5029334 56.0343569,90.2373164 C58.1046956,99.2049386 50.6219897,108.589627 39.3212654,111.198605 C28.0205411,113.807583 17.1811529,108.652883 15.1108142,99.6852607 C13.6661469,93.427719 16.8729974,86.9671017 22.7828015,82.7472664 Z" id="path-3"></path>
        <path d="M36.0051464,59.9952062 L47.1035226,0 L19.3291651,53.4701438 C10.4339218,52.9032096 2.82326122,56.6306459 1.11501046,63.0059245 C-0.957645808,70.741183 6.44378849,79.4452709 17.6465767,82.4470489 C28.8493648,85.448827 39.6112389,81.6115829 41.6838952,73.8763244 C42.9652809,69.0941277 40.6255482,63.9416321 36.0051464,59.9952062 Z" id="path-5"></path>
    </defs>
    <g id="Page-1" stroke="none" stroke-width="1" fill="none" fill-rule="evenodd">
        <g id="gopwt">
            <path d="M154.47201,33.0579039 L158.331697,10.8310125 L161.337706,8.60643506 L160.463448,7 L156.19744,8.60643506 L149,33.9289824 L154.47201,33.0579039 Z" id="Path-4" fill="#305426"></path>
            <path d="M195.865696,33.0579039 L192.006009,10.8310125 L189,8.60643506 L189.874258,7 L194.140266,8.60643506 L201.337706,33.9289824 L195.865696,33.0579039 Z" id="Path-4" fill="#305426"></path>
            <path d="M180.363811,43.1625099 L172.29233,43.1625098 C172.29233,43.1625098 161.951731,51.1045627 153.401897,45.5555972 C144.852062,40.0066316 148.469587,31.6754608 150.689207,29.1417726 C152.195644,27.4221804 162.820605,25.3348714 166.638163,29.1417726 C172.427515,34.9149646 172.29233,38.5103884 172.29233,38.5103884 L180.363811,38.5103884 C180.363811,38.5103884 182.253268,32.3852551 183.257397,31.0765095 C184.904503,28.9297309 191.094891,26.0392297 196.383006,27.9824377 C201.671122,29.9256456 202.507525,34.9637667 202.092014,39.7497843 C201.676502,44.535802 197.737004,45.8407106 192.756218,46.6230143 C187.775432,47.405318 180.363811,43.1625099 180.363811,43.1625099 Z" id="Path-3" fill="#305425"></path>
            <ellipse id="Oval-1" fill="#000000" cx="192" cy="36.5" rx="7" ry="6.5"></ellipse>
            <path d="M192.541981,38.8949113 C191.322523,38.8691058 192.541981,37.0861688 192.541981,37.0861688 C195.353256,30.5048496 199.231088,20.8941286 206.706196,16.4223337 C213.038078,12.6344447 220.799812,12.29987 226.550495,13.9197483 C232.301178,15.5396266 236.693894,17.3831919 237.265201,21.8762308 C237.482064,23.5817497 234.005917,23.4994633 232.301178,23.2765503 C231.464503,23.167146 226.569878,19.4785493 219.968159,18.5879718 C216.015603,18.0547688 209.95317,19.4005923 207.957489,20.6768867 C204.161045,23.1048195 193.784256,37.887425 193.784256,37.887425 C193.784256,37.887425 193.761439,38.9207168 192.541981,38.8949113 Z" id="Path-2" fill="#55784B"></path>
            <ellipse id="Oval-2" fill="#CA5959" cx="239" cy="23" rx="7" ry="7"></ellipse>
            <g id="Group" transform="translate(100.000000, 9.000000)">
                <ellipse id="Mask" fill="#000000" cx="60" cy="27.5" rx="7" ry="6.5"></ellipse>
                <mask id="mask-2" fill="white">
                    <use xlink:href="#path-1"></use>
                </mask>
                <use id="Mask" fill="#55784B" xlink:href="#path-1"></use>
            </g>
            <g id="Stone" transform="translate(18.000000, 99.000000)">
                <path d="M14.0178438,21.8521546 L9.54572831,11.7091949 L20.8927789,8.61244091 L30.5330711,18.7690998 L21.2630587,23.974713 L14.0178438,21.8521546 Z" id="Path-9" fill="#643406"></path>
                <path d="M4.47211552,38.2397137 L0,28.096754 L11.3470506,25 L20.9873428,35.1566589 L11.7173304,40.3622721 L4.47211552,38.2397137 Z" id="Path-9" fill="#643406"></path>
                <path d="M14.0178438,13.2397137 L9.54572831,3.09675403 L20.8927789,0 L30.5330711,10.1566589 L21.2630587,15.3622721 L14.0178438,13.2397137 Z" id="Path-9" fill="#32200F"></path>
                <path d="M5.47211552,20.2397137 L1,10.096754 L12.3470506,7 L21.9873428,17.1566589 L12.7173304,22.3622721 L5.47211552,20.2397137 Z" id="Path-9" fill="#8F6339"></path>
                <path d="M15.4721155,35.2397137 L11,25.096754 L22.3470506,22 L31.9873428,32.1566589 L22.7173304,37.3622721 L15.4721155,35.2397137 Z" id="Path-9" fill="#8F6339"></path>
                <path d="M5.47211552,30.2397137 L1,20.096754 L12.3470506,17 L21.9873428,27.1566589 L12.7173304,32.3622721 L5.47211552,30.2397137 Z" id="Path-9" fill="#32200F"></path>
                <path d="M30.0178438,21.8521546 L25.5457283,11.7091949 L36.8927789,8.61244091 L46.5330711,18.7690998 L37.2630587,23.974713 L30.0178438,21.8521546 Z" id="Path-9" fill="#643406"></path>
                <path d="M20.4721155,38.2397137 L16,28.096754 L27.3470506,25 L36.9873428,35.1566589 L27.7173304,40.3622721 L20.4721155,38.2397137 Z" id="Path-9" fill="#643406"></path>
                <path d="M30.0178438,13.2397137 L25.5457283,3.09675403 L36.8927789,0 L46.5330711,10.1566589 L37.2630587,15.3622721 L30.0178438,13.2397137 Z" id="Path-9" fill="#A28F7E"></path>
                <path d="M21.4721155,20.2397137 L17,10.096754 L28.3470506,7 L37.9873428,17.1566589 L28.7173304,22.3622721 L21.4721155,20.2397137 Z" id="Path-9" fill="#6D5035"></path>
                <path d="M31.4721155,35.2397137 L27,25.096754 L38.3470506,22 L47.9873428,32.1566589 L38.7173304,37.3622721 L31.4721155,35.2397137 Z" id="Path-9" fill="#8F6339"></path>
                <path d="M21.4721155,30.2397137 L17,20.096754 L28.3470506,17 L37.9873428,27.1566589 L28.7173304,32.3622721 L21.4721155,30.2397137 Z" id="Path-9" fill="#32200F"></path>
                <path d="M17.0178438,51.8521546 L12.5457283,41.7091949 L23.8927789,38.6124409 L33.5330711,48.7690998 L24.2630587,53.974713 L17.0178438,51.8521546 Z" id="Path-9" fill="#643406"></path>
                <path d="M7.47211552,68.2397137 L3,58.096754 L14.3470506,55 L23.9873428,65.1566589 L14.7173304,70.3622721 L7.47211552,68.2397137 Z" id="Path-9" fill="#643406"></path>
                <path d="M17.0178438,43.2397137 L12.5457283,33.096754 L23.8927789,30 L33.5330711,40.1566589 L24.2630587,45.3622721 L17.0178438,43.2397137 Z" id="Path-9" fill="#32200F"></path>
                <path d="M8.47211552,50.2397137 L4,40.096754 L15.3470506,37 L24.9873428,47.1566589 L15.7173304,52.3622721 L8.47211552,50.2397137 Z" id="Path-9" fill="#8F6339"></path>
                <path d="M18.4721155,65.2397137 L14,55.096754 L25.3470506,52 L34.9873428,62.1566589 L25.7173304,67.3622721 L18.4721155,65.2397137 Z" id="Path-9" fill="#8F6339"></path>
                <path d="M8.47211552,60.2397137 L4,50.096754 L15.3470506,47 L24.9873428,57.1566589 L15.7173304,62.3622721 L8.47211552,60.2397137 Z" id="Path-9" fill="#32200F"></path>
                <path d="M30.0178438,65.8521546 L25.5457283,55.7091949 L36.8927789,52.6124409 L46.5330711,62.7690998 L37.2630587,67.974713 L30.0178438,65.8521546 Z" id="Path-9" fill="#643406"></path>
                <path d="M20.4721155,82.2397137 L16,72.096754 L27.3470506,69 L36.9873428,79.1566589 L27.7173304,84.3622721 L20.4721155,82.2397137 Z" id="Path-9" fill="#643406"></path>
                <path d="M30.0178438,57.2397137 L25.5457283,47.096754 L36.8927789,44 L46.5330711,54.1566589 L37.2630587,59.3622721 L30.0178438,57.2397137 Z" id="Path-9" fill="#32200F"></path>
                <path d="M21.4721155,64.2397137 L17,54.096754 L28.3470506,51 L37.9873428,61.1566589 L28.7173304,66.3622721 L21.4721155,64.2397137 Z" id="Path-9" fill="#8F6339"></path>
                <path d="M31.4721155,79.2397137 L27,69.096754 L38.3470506,66 L47.9873428,76.1566589 L38.7173304,81.3622721 L31.4721155,79.2397137 Z" id="Path-9" fill="#8F6339"></path>
                <path d="M21.4721155,74.2397137 L17,64.096754 L28.3470506,61 L37.9873428,71.1566589 L28.7173304,76.3622721 L21.4721155,74.2397137 Z" id="Path-9" fill="#32200F"></path>
                <path d="M46.0178438,78.8521546 L41.5457283,68.7091949 L52.8927789,65.6124409 L62.5330711,75.7690998 L53.2630587,80.974713 L46.0178438,78.8521546 Z" id="Path-9" fill="#643406"></path>
                <path d="M36.4721155,95.2397137 L32,85.096754 L43.3470506,82 L52.9873428,92.1566589 L43.7173304,97.3622721 L36.4721155,95.2397137 Z" id="Path-9" fill="#643406"></path>
                <path d="M46.0178438,70.2397137 L41.5457283,60.096754 L52.8927789,57 L62.5330711,67.1566589 L53.2630587,72.3622721 L46.0178438,70.2397137 Z" id="Path-9" fill="#32200F"></path>
                <path d="M37.4721155,77.2397137 L33,67.096754 L44.3470506,64 L53.9873428,74.1566589 L44.7173304,79.3622721 L37.4721155,77.2397137 Z" id="Path-9" fill="#8F6339"></path>
                <path d="M47.4721155,92.2397137 L43,82.096754 L54.3470506,79 L63.9873428,89.1566589 L54.7173304,94.3622721 L47.4721155,92.2397137 Z" id="Path-9" fill="#8F6339"></path>
                <path d="M37.4721155,87.2397137 L33,77.096754 L44.3470506,74 L53.9873428,84.1566589 L44.7173304,89.3622721 L37.4721155,87.2397137 Z" id="Path-9" fill="#32200F"></path>
                <path d="M46.0178438,78.8521546 L41.5457283,68.7091949 L52.8927789,65.6124409 L62.5330711,75.7690998 L54.8417231,81.1014994 L46.0178438,78.8521546 Z" id="Path-9" fill="#7B7672"></path>
                <path d="M36.4721155,95.2397137 L32,85.096754 L43.3470506,82 L52.9873428,92.1566589 L43.7173304,97.3622721 L36.4721155,95.2397137 Z" id="Path-9" fill="#643406"></path>
                <path d="M46.0178438,70.2397137 L41.5457283,60.096754 L52.8927789,57 L62.5330711,67.1566589 L53.2630587,72.3622721 L46.0178438,70.2397137 Z" id="Path-9" fill="#32200F"></path>
                <path d="M37.4721155,77.2397137 L33,67.096754 L44.3470506,64 L53.9873428,74.1566589 L44.7173304,79.3622721 L37.4721155,77.2397137 Z" id="Path-9" fill="#482504"></path>
                <path d="M47.4721155,92.2397137 L43,82.096754 L54.3470506,79 L63.9873428,89.1566589 L54.7173304,94.3622721 L47.4721155,92.2397137 Z" id="Path-9" fill="#8F6339"></path>
                <path d="M37.4721155,87.2397137 L33,77.096754 L44.3470506,74 L53.9873428,84.1566589 L44.7173304,89.3622721 L37.4721155,87.2397137 Z" id="Path-9" fill="#32200F"></path>
                <path d="M36.0178438,32.8521546 L31.5457283,22.7091949 L42.8927789,19.6124409 L52.5330711,29.7690998 L43.2630587,34.974713 L36.0178438,32.8521546 Z" id="Path-9" fill="#643406"></path>
                <path d="M26.4721155,49.2397137 L22,39.096754 L33.3470506,36 L42.9873428,46.1566589 L33.7173304,51.3622721 L26.4721155,49.2397137 Z" id="Path-9" fill="#643406"></path>
                <path d="M36.0178438,24.2397137 L31.5457283,14.096754 L42.8927789,11 L52.5330711,21.1566589 L43.2630587,26.3622721 L36.0178438,24.2397137 Z" id="Path-9" fill="#32200F"></path>
                <path d="M27.4721155,31.2397137 L23,21.096754 L34.3470506,18 L43.9873428,28.1566589 L34.7173304,33.3622721 L27.4721155,31.2397137 Z" id="Path-9" fill="#8F6339"></path>
                <path d="M37.4721155,46.2397137 L33,36.096754 L44.3470506,33 L53.9873428,43.1566589 L44.7173304,48.3622721 L37.4721155,46.2397137 Z" id="Path-9" fill="#8F6339"></path>
                <path d="M27.4721155,41.2397137 L23,31.096754 L34.3470506,28 L43.9873428,38.1566589 L34.7173304,43.3622721 L27.4721155,41.2397137 Z" id="Path-9" fill="#32200F"></path>
                <path d="M36.0178438,32.8521546 L31.5457283,22.7091949 L42.8927789,19.6124409 L52.5330711,29.7690998 L43.2630587,34.974713 L36.0178438,32.8521546 Z" id="Path-9" fill="#643406"></path>
                <path d="M26.4721155,49.2397137 L22,39.096754 L33.3470506,36 L42.9873428,46.1566589 L33.7173304,51.3622721 L26.4721155,49.2397137 Z" id="Path-9" fill="#643406"></path>
                <path d="M36.0178438,24.2397137 L31.5457283,14.096754 L42.8927789,11 L52.5330711,21.1566589 L43.2630587,26.3622721 L36.0178438,24.2397137 Z" id="Path-9" fill="#32200F"></path>
                <path d="M27.4721155,31.2397137 L23,21.096754 L34.3470506,18 L43.9873428,28.1566589 L34.7173304,33.3622721 L27.4721155,31.2397137 Z" id="Path-9" fill="#533D28"></path>
                <path d="M37.4721155,46.2397137 L33,36.096754 L44.3470506,33 L53.9873428,43.1566589 L44.7173304,48.3622721 L37.4721155,46.2397137 Z" id="Path-9" fill="#8F6339"></path>
                <path d="M27.4721155,41.2397137 L23,31.096754 L34.3470506,28 L43.9873428,38.1566589 L34.7173304,43.3622721 L27.4721155,41.2397137 Z" id="Path-9" fill="#32200F"></path>
                <path d="M49.0178438,46.8521546 L44.5457283,36.7091949 L55.8927789,33.6124409 L65.5330711,43.7690998 L56.2630587,48.974713 L49.0178438,46.8521546 Z" id="Path-9" fill="#643406"></path>
                <path d="M39.4721155,63.2397137 L35,53.096754 L46.3470506,50 L55.9873428,60.1566589 L46.7173304,65.3622721 L39.4721155,63.2397137 Z" id="Path-9" fill="#643406"></path>
                <path d="M49.0178438,38.2397137 L44.5457283,28.096754 L55.8927789,25 L65.5330711,35.1566589 L56.2630587,40.3622721 L49.0178438,38.2397137 Z" id="Path-9" fill="#32200F"></path>
                <path d="M40.4721155,45.2397137 L36,35.096754 L47.3470506,32 L56.9873428,42.1566589 L47.7173304,47.3622721 L40.4721155,45.2397137 Z" id="Path-9" fill="#8F6339"></path>
                <path d="M50.4721155,60.2397137 L46,50.096754 L57.3470506,47 L66.9873428,57.1566589 L57.7173304,62.3622721 L50.4721155,60.2397137 Z" id="Path-9" fill="#8F6339"></path>
                <path d="M40.4721155,55.2397137 L36,45.096754 L47.3470506,42 L56.9873428,52.1566589 L47.7173304,57.3622721 L40.4721155,55.2397137 Z" id="Path-9" fill="#4B3312"></path>
                <path d="M65.0178438,59.8521546 L60.5457283,49.7091949 L71.8927789,46.6124409 L81.5330711,56.7690998 L72.2630587,61.974713 L65.0178438,59.8521546 Z" id="Path-9" fill="#643406"></path>
                <path d="M55.4721155,76.2397137 L51,66.096754 L62.3470506,63 L71.9873428,73.1566589 L62.7173304,78.3622721 L55.4721155,76.2397137 Z" id="Path-9" fill="#643406"></path>
                <path d="M65.0178438,51.2397137 L60.5457283,41.096754 L71.8927789,38 L81.5330711,48.1566589 L72.2630587,53.3622721 L65.0178438,51.2397137 Z" id="Path-9" fill="#32200F"></path>
                <path d="M56.4721155,58.2397137 L52,48.096754 L63.3470506,45 L72.9873428,55.1566589 L63.7173304,60.3622721 L56.4721155,58.2397137 Z" id="Path-9" fill="#6B6056"></path>
                <path d="M61.4721155,58.2397137 L57,48.096754 L68.3470506,45 L77.9873428,55.1566589 L68.7173304,60.3622721 L61.4721155,58.2397137 Z" id="Path-9" fill="#ACA197"></path>
                <path d="M66.4721155,73.2397137 L62,63.096754 L73.3470506,60 L82.9873428,70.1566589 L73.7173304,75.3622721 L66.4721155,73.2397137 Z" id="Path-9" fill="#8F6339"></path>
                <path d="M56.4721155,68.2397137 L52,58.096754 L63.3470506,55 L72.9873428,65.1566589 L63.7173304,70.3622721 L56.4721155,68.2397137 Z" id="Path-9" fill="#32200F"></path>
                <path d="M17.0178438,43.2397137 L12.5457283,33.096754 L23.8927789,30 L33.5330711,40.1566589 L24.2630587,45.3622721 L17.0178438,43.2397137 Z" id="Path-9" fill="#7F7871"></path>
                <path d="M17.0178438,51.8521546 L12.5457283,41.7091949 L23.8927789,38.6124409 L33.5330711,48.7690998 L24.2630587,53.974713 L17.0178438,51.8521546 Z" id="Path-9" fill="#643406"></path>
                <path d="M7.47211552,68.2397137 L3,58.096754 L14.3470506,55 L23.9873428,65.1566589 L14.7173304,70.3622721 L7.47211552,68.2397137 Z" id="Path-9" fill="#643406"></path>
                <path d="M8.47211552,50.2397137 L4,40.096754 L15.3470506,37 L24.9873428,47.1566589 L15.7173304,52.3622721 L8.47211552,50.2397137 Z" id="Path-9" fill="#8F6339"></path>
                <path d="M18.4721155,65.2397137 L14,55.096754 L25.3470506,52 L34.9873428,62.1566589 L25.7173304,67.3622721 L18.4721155,65.2397137 Z" id="Path-9" fill="#8F6339"></path>
                <path d="M8.47211552,60.2397137 L4,50.096754 L15.3470506,47 L24.9873428,57.1566589 L15.7173304,62.3622721 L8.47211552,60.2397137 Z" id="Path-9" fill="#32200F"></path>
                <path d="M30.0178438,64.8521546 L25.5457283,54.7091949 L36.8927789,51.6124409 L46.5330711,61.7690998 L37.2630587,66.974713 L30.0178438,64.8521546 Z" id="Path-9" fill="#63564A"></path>
                <path d="M20.4721155,82.2397137 L16,72.096754 L27.3470506,69 L36.9873428,79.1566589 L27.7173304,84.3622721 L20.4721155,82.2397137 Z" id="Path-9" fill="#643406"></path>
                <path d="M11.4721155,74.2397137 L7,64.096754 L18.3470506,61 L27.9873428,71.1566589 L18.7173304,76.3622721 L11.4721155,74.2397137 Z" id="Path-9" fill="#7F7871"></path>
                <path d="M30.4721155,87.2397137 L26,77.096754 L37.3470506,74 L46.9873428,84.1566589 L37.7173304,89.3622721 L30.4721155,87.2397137 Z" id="Path-9" fill="#7F7871"></path>
                <path d="M30.0178438,57.2397137 L25.5457283,47.096754 L36.8927789,44 L46.5330711,54.1566589 L37.2630587,59.3622721 L30.0178438,57.2397137 Z" id="Path-9" fill="#32200F"></path>
                <path d="M26.4721155,69.2397137 L22,59.096754 L33.3470506,56 L42.9873428,66.1566589 L33.7173304,71.3622721 L26.4721155,69.2397137 Z" id="Path-9" fill="#A89D93"></path>
                <path d="M18.4721155,69.2397137 L14,59.096754 L25.3470506,56 L34.9873428,66.1566589 L25.7173304,71.3622721 L18.4721155,69.2397137 Z" id="Path-9" fill="#8F6339"></path>
                <path d="M31.4721155,79.2397137 L27,69.096754 L38.3470506,66 L47.9873428,76.1566589 L38.7173304,81.3622721 L31.4721155,79.2397137 Z" id="Path-9" fill="#8F6339"></path>
                <path d="M21.4721155,74.2397137 L17,64.096754 L28.3470506,61 L37.9873428,71.1566589 L28.7173304,76.3622721 L21.4721155,74.2397137 Z" id="Path-9" fill="#32200F"></path>
                <path d="M69.0178438,72.8521546 L64.5457283,62.7091949 L75.8927789,59.6124409 L85.5330711,69.7690998 L76.2630587,74.974713 L69.0178438,72.8521546 Z" id="Path-9" fill="#643406"></path>
                <path d="M59.4721155,89.2397137 L55,79.096754 L66.3470506,76 L75.9873428,86.1566589 L66.7173304,91.3622721 L59.4721155,89.2397137 Z" id="Path-9" fill="#643406"></path>
                <path d="M69.0178438,64.2397137 L64.5457283,54.096754 L75.8927789,51 L85.5330711,61.1566589 L76.2630587,66.3622721 L69.0178438,64.2397137 Z" id="Path-9" fill="#7C6D5F"></path>
                <path d="M64.4721155,71.2397137 L60,61.096754 L71.3470506,58 L80.9873428,68.1566589 L71.7173304,73.3622721 L64.4721155,71.2397137 Z" id="Path-9" fill="#8F6339"></path>
                <path d="M58.4721155,76.2397137 L54,66.096754 L65.3470506,63 L74.9873428,73.1566589 L65.7173304,78.3622721 L58.4721155,76.2397137 Z" id="Path-9" fill="#88725E"></path>
                <path d="M70.4721155,86.2397137 L66,76.096754 L77.3470506,73 L86.9873428,83.1566589 L77.7173304,88.3622721 L70.4721155,86.2397137 Z" id="Path-9" fill="#8F6339"></path>
                <path d="M60.4721155,81.2397137 L56,71.096754 L67.3470506,68 L76.9873428,78.1566589 L67.7173304,83.3622721 L60.4721155,81.2397137 Z" id="Path-9" fill="#32200F"></path>
            </g>
            <g id="Stone" transform="translate(294.082898, 144.492625) scale(1, -1) rotate(-19.000000) translate(-294.082898, -144.492625) translate(250.582898, 95.492625)">
                <path d="M14.0178438,21.8521546 L9.54572831,11.7091949 L20.8927789,8.61244091 L30.5330711,18.7690998 L21.2630587,23.974713 L14.0178438,21.8521546 Z" id="Path-9" fill="#643406"></path>
                <path d="M4.47211552,38.2397137 L5.68434189e-14,28.096754 L11.3470506,25 L20.9873428,35.1566589 L11.7173304,40.3622721 L4.47211552,38.2397137 Z" id="Path-9" fill="#643406"></path>
                <path d="M14.0178438,13.2397137 L9.54572831,3.09675403 L20.8927789,-9.9475983e-14 L30.5330711,10.1566589 L21.2630587,15.3622721 L14.0178438,13.2397137 Z" id="Path-9" fill="#32200F"></path>
                <path d="M5.47211552,20.2397137 L1,10.096754 L12.3470506,7 L21.9873428,17.1566589 L12.7173304,22.3622721 L5.47211552,20.2397137 Z" id="Path-9" fill="#8F6339"></path>
                <path d="M15.4721155,35.2397137 L11,25.096754 L22.3470506,22 L31.9873428,32.1566589 L22.7173304,37.3622721 L15.4721155,35.2397137 Z" id="Path-9" fill="#8F6339"></path>
                <path d="M5.47211552,30.2397137 L1,20.096754 L12.3470506,17 L21.9873428,27.1566589 L12.7173304,32.3622721 L5.47211552,30.2397137 Z" id="Path-9" fill="#32200F"></path>
                <path d="M30.0178438,21.8521546 L25.5457283,11.7091949 L36.8927789,8.61244091 L46.5330711,18.7690998 L37.2630587,23.974713 L30.0178438,21.8521546 Z" id="Path-9" fill="#643406"></path>
                <path d="M20.4721155,38.2397137 L16,28.096754 L27.3470506,25 L36.9873428,35.1566589 L27.7173304,40.3622721 L20.4721155,38.2397137 Z" id="Path-9" fill="#643406"></path>
                <path d="M30.0178438,13.2397137 L25.5457283,3.09675403 L36.8927789,-1.16529009e-12 L46.5330711,10.1566589 L37.2630587,15.3622721 L30.0178438,13.2397137 Z" id="Path-9" fill="#A28F7E"></path>
                <path d="M21.4721155,20.2397137 L17,10.096754 L28.3470506,7 L37.9873428,17.1566589 L28.7173304,22.3622721 L21.4721155,20.2397137 Z" id="Path-9" fill="#6D5035"></path>
                <path d="M31.4721155,35.2397137 L27,25.096754 L38.3470506,22 L47.9873428,32.1566589 L38.7173304,37.3622721 L31.4721155,35.2397137 Z" id="Path-9" fill="#8F6339"></path>
                <path d="M21.4721155,30.2397137 L17,20.096754 L28.3470506,17 L37.9873428,27.1566589 L28.7173304,32.3622721 L21.4721155,30.2397137 Z" id="Path-9" fill="#32200F"></path>
                <path d="M17.0178438,51.8521546 L12.5457283,41.7091949 L23.8927789,38.6124409 L33.5330711,48.7690998 L24.2630587,53.974713 L17.0178438,51.8521546 Z" id="Path-9" fill="#643406"></path>
                <path d="M7.47211552,68.2397137 L3,58.096754 L14.3470506,55 L23.9873428,65.1566589 L14.7173304,70.3622721 L7.47211552,68.2397137 Z" id="Path-9" fill="#643406"></path>
                <path d="M17.0178438,43.2397137 L12.5457283,33.096754 L23.8927789,30 L33.5330711,40.1566589 L24.2630587,45.3622721 L17.0178438,43.2397137 Z" id="Path-9" fill="#32200F"></path>
                <path d="M8.47211552,50.2397137 L4,40.096754 L15.3470506,37 L24.9873428,47.1566589 L15.7173304,52.3622721 L8.47211552,50.2397137 Z" id="Path-9" fill="#8F6339"></path>
                <path d="M18.4721155,65.2397137 L14,55.096754 L25.3470506,52 L34.9873428,62.1566589 L25.7173304,67.3622721 L18.4721155,65.2397137 Z" id="Path-9" fill="#8F6339"></path>
                <path d="M8.47211552,60.2397137 L4,50.096754 L15.3470506,47 L24.9873428,57.1566589 L15.7173304,62.3622721 L8.47211552,60.2397137 Z" id="Path-9" fill="#32200F"></path>
                <path d="M30.0178438,65.8521546 L25.5457283,55.7091949 L36.8927789,52.6124409 L46.5330711,62.7690998 L37.2630587,67.974713 L30.0178438,65.8521546 Z" id="Path-9" fill="#643406"></path>
                <path d="M20.4721155,82.2397137 L16,72.096754 L27.3470506,69 L36.9873428,79.1566589 L27.7173304,84.3622721 L20.4721155,82.2397137 Z" id="Path-9" fill="#643406"></path>
                <path d="M30.0178438,57.2397137 L25.5457283,47.096754 L36.8927789,44 L46.5330711,54.1566589 L37.2630587,59.3622721 L30.0178438,57.2397137 Z" id="Path-9" fill="#32200F"></path>
                <path d="M21.4721155,64.2397137 L17,54.096754 L28.3470506,51 L37.9873428,61.1566589 L28.7173304,66.3622721 L21.4721155,64.2397137 Z" id="Path-9" fill="#8F6339"></path>
                <path d="M31.4721155,79.2397137 L27,69.096754 L38.3470506,66 L47.9873428,76.1566589 L38.7173304,81.3622721 L31.4721155,79.2397137 Z" id="Path-9" fill="#8F6339"></path>
                <path d="M21.4721155,74.2397137 L17,64.096754 L28.3470506,61 L37.9873428,71.1566589 L28.7173304,76.3622721 L21.4721155,74.2397137 Z" id="Path-9" fill="#32200F"></path>
                <path d="M46.0178438,78.8521546 L41.5457283,68.7091949 L52.8927789,65.6124409 L62.5330711,75.7690998 L53.2630587,80.974713 L46.0178438,78.8521546 Z" id="Path-9" fill="#643406"></path>
                <path d="M36.4721155,95.2397137 L32,85.096754 L43.3470506,82 L52.9873428,92.1566589 L43.7173304,97.3622721 L36.4721155,95.2397137 Z" id="Path-9" fill="#643406"></path>
                <path d="M46.0178438,70.2397137 L41.5457283,60.096754 L52.8927789,57 L62.5330711,67.1566589 L53.2630587,72.3622721 L46.0178438,70.2397137 Z" id="Path-9" fill="#32200F"></path>
                <path d="M37.4721155,77.2397137 L33,67.096754 L44.3470506,64 L53.9873428,74.1566589 L44.7173304,79.3622721 L37.4721155,77.2397137 Z" id="Path-9" fill="#8F6339"></path>
                <path d="M47.4721155,92.2397137 L43,82.096754 L54.3470506,79 L63.9873428,89.1566589 L54.7173304,94.3622721 L47.4721155,92.2397137 Z" id="Path-9" fill="#8F6339"></path>
                <path d="M37.4721155,87.2397137 L33,77.096754 L44.3470506,74 L53.9873428,84.1566589 L44.7173304,89.3622721 L37.4721155,87.2397137 Z" id="Path-9" fill="#32200F"></path>
                <path d="M46.0178438,78.8521546 L41.5457283,68.7091949 L52.8927789,65.6124409 L62.5330711,75.7690998 L54.8417231,81.1014994 L46.0178438,78.8521546 Z" id="Path-9" fill="#7B7672"></path>
                <path d="M36.4721155,95.2397137 L32,85.096754 L43.3470506,82 L52.9873428,92.1566589 L43.7173304,97.3622721 L36.4721155,95.2397137 Z" id="Path-9" fill="#643406"></path>
                <path d="M46.0178438,70.2397137 L41.5457283,60.096754 L52.8927789,57 L62.5330711,67.1566589 L53.2630587,72.3622721 L46.0178438,70.2397137 Z" id="Path-9" fill="#32200F"></path>
                <path d="M37.4721155,77.2397137 L33,67.096754 L44.3470506,64 L53.9873428,74.1566589 L44.7173304,79.3622721 L37.4721155,77.2397137 Z" id="Path-9" fill="#482504"></path>
                <path d="M47.4721155,92.2397137 L43,82.096754 L54.3470506,79 L63.9873428,89.1566589 L54.7173304,94.3622721 L47.4721155,92.2397137 Z" id="Path-9" fill="#8F6339"></path>
                <path d="M37.4721155,87.2397137 L33,77.096754 L44.3470506,74 L53.9873428,84.1566589 L44.7173304,89.3622721 L37.4721155,87.2397137 Z" id="Path-9" fill="#32200F"></path>
                <path d="M36.0178438,32.8521546 L31.5457283,22.7091949 L42.8927789,19.6124409 L52.5330711,29.7690998 L43.2630587,34.974713 L36.0178438,32.8521546 Z" id="Path-9" fill="#643406"></path>
                <path d="M26.4721155,49.2397137 L22,39.096754 L33.3470506,36 L42.9873428,46.1566589 L33.7173304,51.3622721 L26.4721155,49.2397137 Z" id="Path-9" fill="#643406"></path>
                <path d="M36.0178438,24.2397137 L31.5457283,14.096754 L42.8927789,11 L52.5330711,21.1566589 L43.2630587,26.3622721 L36.0178438,24.2397137 Z" id="Path-9" fill="#32200F"></path>
                <path d="M27.4721155,31.2397137 L23,21.096754 L34.3470506,18 L43.9873428,28.1566589 L34.7173304,33.3622721 L27.4721155,31.2397137 Z" id="Path-9" fill="#8F6339"></path>
                <path d="M37.4721155,46.2397137 L33,36.096754 L44.3470506,33 L53.9873428,43.1566589 L44.7173304,48.3622721 L37.4721155,46.2397137 Z" id="Path-9" fill="#8F6339"></path>
                <path d="M27.4721155,41.2397137 L23,31.096754 L34.3470506,28 L43.9873428,38.1566589 L34.7173304,43.3622721 L27.4721155,41.2397137 Z" id="Path-9" fill="#32200F"></path>
                <path d="M36.0178438,32.8521546 L31.5457283,22.7091949 L42.8927789,19.6124409 L52.5330711,29.7690998 L43.2630587,34.974713 L36.0178438,32.8521546 Z" id="Path-9" fill="#643406"></path>
                <path d="M26.4721155,49.2397137 L22,39.096754 L33.3470506,36 L42.9873428,46.1566589 L33.7173304,51.3622721 L26.4721155,49.2397137 Z" id="Path-9" fill="#643406"></path>
                <path d="M36.0178438,24.2397137 L31.5457283,14.096754 L42.8927789,11 L52.5330711,21.1566589 L43.2630587,26.3622721 L36.0178438,24.2397137 Z" id="Path-9" fill="#32200F"></path>
                <path d="M27.4721155,31.2397137 L23,21.096754 L34.3470506,18 L43.9873428,28.1566589 L34.7173304,33.3622721 L27.4721155,31.2397137 Z" id="Path-9" fill="#533D28"></path>
                <path d="M44.4721155,31.2397137 L40,21.096754 L51.3470506,18 L60.9873428,28.1566589 L51.7173304,33.3622721 L44.4721155,31.2397137 Z" id="Path-9" fill="#9B8A7B"></path>
                <path d="M37.4721155,46.2397137 L33,36.096754 L44.3470506,33 L53.9873428,43.1566589 L44.7173304,48.3622721 L37.4721155,46.2397137 Z" id="Path-9" fill="#A08F7F"></path>
                <path d="M27.4721155,41.2397137 L23,31.096754 L34.3470506,28 L43.9873428,38.1566589 L34.7173304,43.3622721 L27.4721155,41.2397137 Z" id="Path-9" fill="#32200F"></path>
                <path d="M49.0178438,46.8521546 L44.5457283,36.7091949 L55.8927789,33.6124409 L65.5330711,43.7690998 L56.2630587,48.974713 L49.0178438,46.8521546 Z" id="Path-9" fill="#643406"></path>
                <path d="M39.4721155,63.2397137 L35,53.096754 L46.3470506,50 L55.9873428,60.1566589 L46.7173304,65.3622721 L39.4721155,63.2397137 Z" id="Path-9" fill="#643406"></path>
                <path d="M49.0178438,38.2397137 L44.5457283,28.096754 L55.8927789,25 L65.5330711,35.1566589 L56.2630587,40.3622721 L49.0178438,38.2397137 Z" id="Path-9" fill="#32200F"></path>
                <path d="M41.7432022,44.6197632 L37.2710867,34.4768036 L48.6181373,31.3800496 L58.2584295,41.5367085 L48.9884171,46.7423217 L41.7432022,44.6197632 Z" id="Path-9" fill="#8F6339"></path>
                <path d="M60.4721155,45.2397137 L56,35.096754 L67.3470506,32 L76.9873428,42.1566589 L67.7173304,47.3622721 L60.4721155,45.2397137 Z" id="Path-9" fill="#8F6339"></path>
                <path d="M50.4721155,60.2397137 L46,50.096754 L57.3470506,47 L66.9873428,57.1566589 L57.7173304,62.3622721 L50.4721155,60.2397137 Z" id="Path-9" fill="#8F6339"></path>
                <path d="M40.4721155,55.2397137 L36,45.096754 L47.3470506,42 L56.9873428,52.1566589 L47.7173304,57.3622721 L40.4721155,55.2397137 Z" id="Path-9" fill="#4B3312"></path>
                <path d="M65.0178438,59.8521546 L60.5457283,49.7091949 L71.8927789,46.6124409 L81.5330711,56.7690998 L72.2630587,61.974713 L65.0178438,59.8521546 Z" id="Path-9" fill="#643406"></path>
                <path d="M55.4721155,76.2397137 L51,66.096754 L62.3470506,63 L71.9873428,73.1566589 L62.7173304,78.3622721 L55.4721155,76.2397137 Z" id="Path-9" fill="#643406"></path>
                <path d="M65.0178438,51.2397137 L60.5457283,41.096754 L71.8927789,38 L81.5330711,48.1566589 L72.2630587,53.3622721 L65.0178438,51.2397137 Z" id="Path-9" fill="#32200F"></path>
                <path d="M56.4721155,58.2397137 L52,48.096754 L63.3470506,45 L72.9873428,55.1566589 L63.7173304,60.3622721 L56.4721155,58.2397137 Z" id="Path-9" fill="#6B6056"></path>
                <path d="M61.4721155,58.2397137 L57,48.096754 L68.3470506,45 L77.9873428,55.1566589 L68.7173304,60.3622721 L61.4721155,58.2397137 Z" id="Path-9" fill="#ACA197"></path>
                <path d="M66.4721155,73.2397137 L62,63.096754 L73.3470506,60 L82.9873428,70.1566589 L73.7173304,75.3622721 L66.4721155,73.2397137 Z" id="Path-9" fill="#8F6339"></path>
                <path d="M56.4721155,68.2397137 L52,58.096754 L63.3470506,55 L72.9873428,65.1566589 L63.7173304,70.3622721 L56.4721155,68.2397137 Z" id="Path-9" fill="#32200F"></path>
                <path d="M17.0178438,43.2397137 L12.5457283,33.096754 L23.8927789,30 L33.5330711,40.1566589 L24.2630587,45.3622721 L17.0178438,43.2397137 Z" id="Path-9" fill="#7F7871"></path>
                <path d="M17.0178438,51.8521546 L12.5457283,41.7091949 L23.8927789,38.6124409 L33.5330711,48.7690998 L24.2630587,53.974713 L17.0178438,51.8521546 Z" id="Path-9" fill="#643406"></path>
                <path d="M7.47211552,68.2397137 L3,58.096754 L14.3470506,55 L23.9873428,65.1566589 L14.7173304,70.3622721 L7.47211552,68.2397137 Z" id="Path-9" fill="#643406"></path>
                <path d="M8.47211552,50.2397137 L4,40.096754 L15.3470506,37 L24.9873428,47.1566589 L15.7173304,52.3622721 L8.47211552,50.2397137 Z" id="Path-9" fill="#8F6339"></path>
                <path d="M18.4721155,65.2397137 L14,55.096754 L25.3470506,52 L34.9873428,62.1566589 L25.7173304,67.3622721 L18.4721155,65.2397137 Z" id="Path-9" fill="#8F6339"></path>
                <path d="M8.47211552,60.2397137 L4,50.096754 L15.3470506,47 L24.9873428,57.1566589 L15.7173304,62.3622721 L8.47211552,60.2397137 Z" id="Path-9" fill="#32200F"></path>
                <path d="M30.0178438,64.8521546 L25.5457283,54.7091949 L36.8927789,51.6124409 L46.5330711,61.7690998 L37.2630587,66.974713 L30.0178438,64.8521546 Z" id="Path-9" fill="#63564A"></path>
                <path d="M20.4721155,82.2397137 L16,72.096754 L27.3470506,69 L36.9873428,79.1566589 L27.7173304,84.3622721 L20.4721155,82.2397137 Z" id="Path-9" fill="#643406"></path>
                <path d="M11.4721155,74.2397137 L7,64.096754 L18.3470506,61 L27.9873428,71.1566589 L18.7173304,76.3622721 L11.4721155,74.2397137 Z" id="Path-9" fill="#7F7871"></path>
                <path d="M30.4721155,87.2397137 L26,77.096754 L37.3470506,74 L46.9873428,84.1566589 L37.7173304,89.3622721 L30.4721155,87.2397137 Z" id="Path-9" fill="#7F7871"></path>
                <path d="M30.0178438,57.2397137 L25.5457283,47.096754 L36.8927789,44 L46.5330711,54.1566589 L37.2630587,59.3622721 L30.0178438,57.2397137 Z" id="Path-9" fill="#32200F"></path>
                <path d="M26.4721155,69.2397137 L22,59.096754 L33.3470506,56 L42.9873428,66.1566589 L33.7173304,71.3622721 L26.4721155,69.2397137 Z" id="Path-9" fill="#A89D93"></path>
                <path d="M18.4721155,69.2397137 L14,59.096754 L25.3470506,56 L34.9873428,66.1566589 L25.7173304,71.3622721 L18.4721155,69.2397137 Z" id="Path-9" fill="#8F6339"></path>
                <path d="M31.4721155,79.2397137 L27,69.096754 L38.3470506,66 L47.9873428,76.1566589 L38.7173304,81.3622721 L31.4721155,79.2397137 Z" id="Path-9" fill="#8F6339"></path>
                <path d="M21.4721155,74.2397137 L17,64.096754 L28.3470506,61 L37.9873428,71.1566589 L28.7173304,76.3622721 L21.4721155,74.2397137 Z" id="Path-9" fill="#32200F"></path>
                <path d="M69.0178438,72.8521546 L64.5457283,62.7091949 L75.8927789,59.6124409 L85.5330711,69.7690998 L76.2630587,74.974713 L69.0178438,72.8521546 Z" id="Path-9" fill="#643406"></path>
                <path d="M59.4721155,89.2397137 L55,79.096754 L66.3470506,76 L75.9873428,86.1566589 L66.7173304,91.3622721 L59.4721155,89.2397137 Z" id="Path-9" fill="#643406"></path>
                <path d="M69.0178438,64.2397137 L64.5457283,54.096754 L75.8927789,51 L85.5330711,61.1566589 L76.2630587,66.3622721 L69.0178438,64.2397137 Z" id="Path-9" fill="#7C6D5F"></path>
                <path d="M64.4721155,71.2397137 L60,61.096754 L71.3470506,58 L80.9873428,68.1566589 L71.7173304,73.3622721 L64.4721155,71.2397137 Z" id="Path-9" fill="#8F6339"></path>
                <path d="M58.4721155,76.2397137 L54,66.096754 L65.3470506,63 L74.9873428,73.1566589 L65.7173304,78.3622721 L58.4721155,76.2397137 Z" id="Path-9" fill="#88725E"></path>
                <path d="M70.4721155,86.2397137 L66,76.096754 L77.3470506,73 L86.9873428,83.1566589 L77.7173304,88.3622721 L70.4721155,86.2397137 Z" id="Path-9" fill="#8F6339"></path>
                <path d="M60.4721155,81.2397137 L56,71.096754 L67.3470506,68 L76.9873428,78.1566589 L67.7173304,83.3622721 L60.4721155,81.2397137 Z" id="Path-9" fill="#32200F"></path>
            </g>
            <ellipse id="Oval-2" fill="#CA5959" cx="105" cy="48" rx="7" ry="7"></ellipse>
            <g id="Houhi" transform="translate(98.000000, 40.000000)" fill="#5D0D0D">
                <path d="M1.92151341,5.36384487 C2.58483461,4.65563609 4.44384708,2.96493818 7.19472441,3.25406575 C9.22464403,3.46741796 10.3642915,4.16848516 11.2066701,5.36384487 C12.0490487,6.55920458 12.7004729,8.8544148 12.2654737,10.2322807 C11.6895059,12.0566664 10.7517585,12.9125804 9.80896029,13.6543579 C8.59976083,14.6057353 6.97901663,14.9381678 7.36213431,14.9381678 C7.67898458,14.9381678 7.99091799,14.9789484 8.29661214,14.9381675 C11.7207917,14.4813673 14.5445112,11.2690221 14.5445112,7.71987915 C14.5445112,3.8538859 11.2281276,0.718545139 7.36213431,0.718545139 C3.49614106,0.718545139 0.362134306,4.13400675 0.362134306,8 C0.362134306,8.04837956 0.86434479,6.4925531 1.92151341,5.36384487 Z" id="Oval-2"></path>
            </g>
            <g id="Houhi" transform="translate(238.689613, 23.689613) rotate(-111.000000) translate(-238.689613, -23.689613) translate(231.189613, 16.189613)" fill="#5D0D0D">
                <path d="M1.92151341,5.36384487 C2.58483461,4.65563609 4.44384708,2.96493818 7.19472441,3.25406575 C9.22464403,3.46741796 10.3642915,4.16848516 11.2066701,5.36384487 C12.0490487,6.55920458 12.7004729,8.8544148 12.2654737,10.2322807 C11.6895059,12.0566664 10.7517585,12.9125804 9.80896029,13.6543579 C8.59976083,14.6057353 6.97901663,14.9381678 7.36213431,14.9381678 C7.67898458,14.9381678 7.99091799,14.9789484 8.29661214,14.9381675 C11.7207917,14.4813673 14.5445112,11.2690221 14.5445112,7.71987915 C14.5445112,3.8538859 11.2281276,0.718545139 7.36213431,0.718545139 C3.49614106,0.718545139 0.362134306,4.13400675 0.362134306,8 C0.362134306,8.04837956 0.86434479,6.4925531 1.92151341,5.36384487 Z" id="Oval-2"></path>
            </g>
            <ellipse id="Oval-2" fill="#000000" cx="102.5" cy="50.5" rx="3.5" ry="3.5"></ellipse>
            <ellipse id="Oval-2" fill="#000000" cx="242.5" cy="24.5" rx="3.5" ry="3.5"></ellipse>
            <g id="Group-2" transform="translate(247.000000, 28.000000)">
                <mask id="mask-4" fill="white">
                    <use xlink:href="#path-3"></use>
                </mask>
                <use id="Mask" fill="#E5DB7E" xlink:href="#path-3"></use>
                <g id="Great" mask="url(#mask-4)">
                    <g transform="translate(33.194542, 96.407260) rotate(-53.000000) translate(-33.194542, -96.407260) translate(7.194542, 73.407260)" id="Path-9">
                        <path d="M13.0178438,21.8521546 L8.54572831,11.7091949 L19.8927789,8.61244091 L29.5330711,18.7690998 L20.2630587,23.974713 L13.0178438,21.8521546 Z" fill="#D1CAFF"></path>
                        <path d="M24.4721155,43.2397137 L20,33.096754 L31.3470506,30 L40.9873428,40.1566589 L31.7173304,45.3622721 L24.4721155,43.2397137 Z" fill="#FFE4CA"></path>
                        <path d="M12.8680349,33.4456222 L8.39591942,23.3026625 L19.74297,20.2059085 L29.3832622,30.3625674 L20.1132498,35.5681806 L12.8680349,33.4456222 Z" fill="#FF569E"></path>
                        <path d="M5.47211552,28.2397137 L1,18.096754 L12.3470506,15 L21.9873428,25.1566589 L12.7173304,30.3622721 L5.47211552,28.2397137 Z" fill="#FFFE56"></path>
                        <path d="M25.4721155,22.2397137 L21,12.096754 L32.3470506,9 L41.9873428,19.1566589 L32.7173304,24.3622721 L25.4721155,22.2397137 Z" fill="#FFE4CA"></path>
                        <path d="M13.0178438,13.2397137 L8.54572831,3.09675403 L19.8927789,1.27897692e-13 L29.5330711,10.1566589 L20.2630587,15.3622721 L13.0178438,13.2397137 Z" fill="#BDEBBE"></path>
                        <path d="M13.4721155,43.2397137 L9,33.096754 L20.3470506,30 L29.9873428,40.1566589 L20.7173304,45.3622721 L13.4721155,43.2397137 Z" fill="#BDEBBE"></path>
                        <path d="M4.47211552,20.2397137 L-8.52651283e-14,10.096754 L11.3470506,7 L20.9873428,17.1566589 L11.7173304,22.3622721 L4.47211552,20.2397137 Z" fill="#7FD0C9"></path>
                        <path d="M35.0178438,33.8521546 L30.5457283,23.7091949 L41.8927789,20.6124409 L51.5330711,30.7690998 L42.2630587,35.974713 L35.0178438,33.8521546 Z" fill="#D1CAFF"></path>
                        <path d="M26.4721155,17.2397137 L22,7.09675403 L33.3470506,4 L42.9873428,14.1566589 L33.7173304,19.3622721 L26.4721155,17.2397137 Z" fill="#FEFFE5"></path>
                        <path d="M34.4721155,43.2397137 L30,33.096754 L41.3470506,30 L50.9873428,40.1566589 L41.7173304,45.3622721 L34.4721155,43.2397137 Z" fill="#FEFFE5"></path>
                        <path d="M35.0178438,25.2397137 L30.5457283,15.096754 L41.8927789,12 L51.5330711,22.1566589 L42.2630587,27.3622721 L35.0178438,25.2397137 Z" fill="#BDEBBE"></path>
                        <path d="M26.4721155,32.2397137 L22,22.096754 L33.3470506,19 L42.9873428,29.1566589 L33.7173304,34.3622721 L26.4721155,32.2397137 Z" fill="#7FD0C9"></path>
                    </g>
                </g>
            </g>
            <g id="Group-3" transform="translate(52.000000, 57.000000)">
                <mask id="mask-6" fill="white">
                    <use xlink:href="#path-5"></use>
                </mask>
                <use id="Mask" fill="#E5DB7E" xlink:href="#path-5"></use>
                <g id="Great" mask="url(#mask-6)">
                    <g transform="translate(-5.000000, 50.000000)" id="Path-9">
                        <path d="M13.0178438,21.8521546 L8.54572831,11.7091949 L19.8927789,8.61244091 L29.5330711,18.7690998 L20.2630587,23.974713 L13.0178438,21.8521546 Z" fill="#D1CAFF"></path>
                        <path d="M15.4721155,35.2397137 L11,25.096754 L22.3470506,22 L31.9873428,32.1566589 L22.7173304,37.3622721 L15.4721155,35.2397137 Z" fill="#FF569E"></path>
                        <path d="M5.47211552,28.2397137 L1,18.096754 L12.3470506,15 L21.9873428,25.1566589 L12.7173304,30.3622721 L5.47211552,28.2397137 Z" fill="#FFFE56"></path>
                        <path d="M25.4721155,22.2397137 L21,12.096754 L32.3470506,9 L41.9873428,19.1566589 L32.7173304,24.3622721 L25.4721155,22.2397137 Z" fill="#FFE4CA"></path>
                        <path d="M13.0178438,13.2397137 L8.54572831,3.09675403 L19.8927789,0 L29.5330711,10.1566589 L20.2630587,15.3622721 L13.0178438,13.2397137 Z" fill="#BDEBBE"></path>
                        <path d="M4.47211552,20.2397137 L0,10.096754 L11.3470506,7 L20.9873428,17.1566589 L11.7173304,22.3622721 L4.47211552,20.2397137 Z" fill="#7FD0C9"></path>
                        <path d="M35.0178438,33.8521546 L30.5457283,23.7091949 L41.8927789,20.6124409 L51.5330711,30.7690998 L42.2630587,35.974713 L35.0178438,33.8521546 Z" fill="#D1CAFF"></path>
                        <path d="M26.4721155,17.2397137 L22,7.09675403 L33.3470506,4 L42.9873428,14.1566589 L33.7173304,19.3622721 L26.4721155,17.2397137 Z" fill="#FEFFE5"></path>
                        <path d="M35.0178438,25.2397137 L30.5457283,15.096754 L41.8927789,12 L51.5330711,22.1566589 L42.2630587,27.3622721 L35.0178438,25.2397137 Z" fill="#BDEBBE"></path>
                        <path d="M26.4721155,32.2397137 L22,22.096754 L33.3470506,19 L42.9873428,29.1566589 L33.7173304,34.3622721 L26.4721155,32.2397137 Z" fill="#7FD0C9"></path>
                    </g>
                </g>
            </g>
        </g>
    </g>
</svg>