<?xml version="1.0" encoding="UTF-8" standalone="no"?>
<svg width="355px" height="322px" viewBox="0 0 355 322" version="1.1" xmlns="http://www.w3.org/2000/svg" xmlns:xlink="http://www.w3.org/1999/xlink">
    <!-- Generator: Sketch 3.6.1 (26313) - http://www.bohemiancoding.com/sketch -->
    <title>makerbee</title>
    <desc>Created with Sketch.</desc>
    <defs>
        <path id="path-1" d="M10.311114,3.27754965 L118.653243,32.8537826 L112.147338,52.0716476 L4.32834551,21.2955512 L10.311114,3.27754965 Z"></path>
        <filter x="-50%" y="-50%" width="200%" height="200%" filterUnits="objectBoundingBox" id="filter-3">
            <feOffset dx="0.2" dy="0.2" in="SourceAlpha" result="shadowOffsetOuter1"></feOffset>
            <feGaussianBlur stdDeviation="0.1" in="shadowOffsetOuter1" result="shadowBlurOuter1"></feGaussianBlur>
            <feColorMatrix values="0 0 0 0 0   0 0 0 0 0   0 0 0 0 0  0 0 0 0.35 0" in="shadowBlurOuter1" type="matrix" result="shadowMatrixOuter1"></feColorMatrix>
            <feMerge>
                <feMergeNode in="shadowMatrixOuter1"></feMergeNode>
                <feMergeNode in="SourceGraphic"></feMergeNode>
            </feMerge>
        </filter>
        <path id="path-4" d="M60.1820912,0.85994199 C60.1820912,0.85994199 42.9170205,33.7541114 33.3742721,49.5221936 C24.3676563,64.4043904 0.117767254,104.661654 0.117767254,104.661654 C0.117767254,104.661654 40.4510555,68.3173293 54.12719,53.5406474 C68.0743807,38.471097 96.1056817,6.67693328 96.1056817,6.67693328 L60.1820912,0.85994199 Z"></path>
        <path id="path-6" d="M40.3388519,0.222833509 C52.3722343,0.216709239 64.4909926,14.8630616 70.7580795,22.3260767 C87.9069706,42.7474359 85.713812,77.6079763 75.3235397,95.8368376 C61.1361275,120.727463 45.7726286,124.027375 24.5274141,115.820039 C3.28219959,107.612702 0.24609375,83.0390625 0.24609375,54.5546875 C0.24609375,26.0703125 16.1785295,0.235129666 40.3388519,0.222833509 Z"></path>
        <path id="path-8" d="M51.4320034,10.7073645 C42.8685775,2.57310675 19.0149871,-5.9054488 8.41932858,7.40577499 C-2.17632996,20.7169988 -1.36969249,47.8645944 8.4193286,55.7060458 C18.2083497,63.5474972 51.4320029,36.6992188 51.4320029,36.6992188 C51.4320029,36.6992188 59.9954293,18.8416223 51.4320034,10.7073645 Z"></path>
        <path id="path-10" d="M10.311114,3.27754965 L118.653243,32.8537826 L112.147338,52.0716476 L4.32834551,21.2955512 L10.311114,3.27754965 Z"></path>
        <filter x="-50%" y="-50%" width="200%" height="200%" filterUnits="objectBoundingBox" id="filter-12">
            <feOffset dx="0.2" dy="0.2" in="SourceAlpha" result="shadowOffsetOuter1"></feOffset>
            <feGaussianBlur stdDeviation="0.1" in="shadowOffsetOuter1" result="shadowBlurOuter1"></feGaussianBlur>
            <feColorMatrix values="0 0 0 0 0   0 0 0 0 0   0 0 0 0 0  0 0 0 0.35 0" in="shadowBlurOuter1" type="matrix" result="shadowMatrixOuter1"></feColorMatrix>
            <feMerge>
                <feMergeNode in="shadowMatrixOuter1"></feMergeNode>
                <feMergeNode in="SourceGraphic"></feMergeNode>
            </feMerge>
        </filter>
    </defs>
    <g id="Page-1" stroke="none" stroke-width="1" fill="none" fill-rule="evenodd">
        <g id="makerbee">
            <g id="Monitor">
                <path d="M32.9016553,104.355069 L0.90196998,131.307076 L147.968926,315.540844 L152.258476,308.3345 L19.8154035,138.722694 L38.8283421,123.530752 L32.9016553,104.355069 Z" id="Arm" fill="#B1A69D"></path>
                <path d="M14.4087219,60.1266874 L60.2866188,180.569568 L73.1728248,175.288265 L27.3915729,54.6223332 L14.4087219,60.1266874 Z" id="Display" fill="#C7B8AC"></path>
                <path d="M14.4379988,6.2259382 L14.4379988,60.2364386 L27.4327619,54.6039733 L27.4327619,0.269180179 L14.4379988,6.2259382 Z" id="Display" fill="#D3CAC2"></path>
                <path d="M27.3720421,54.5799993 L27.3720421,0.321019475 L73.2335572,125.779599 L73.2335572,175.437032 L27.3720421,54.5799993 Z" id="Path-24" fill="#AA9D92"></path>
                <path d="M30.8191594,52.9463291 L30.8191594,18.0299854 L69.913947,123.776659 L69.913947,153.58539 L30.8191594,52.9463291 Z" id="Path-24" fill="#625858"></path>
            </g>
            <g id="Desk" transform="translate(76.000000, 132.000000)">
                <path d="M0.0394471034,123.250169 L4.60239668,34.8029074 L85.0430893,0.812943935 L85.0430929,86.7444448 L0.0394471034,123.250169 Z" fill="#7B614B"></path>
                <path d="M0.17181647,123.174812 L84.9830927,86.7418823 L89.0185007,94.0987388 L6.0704633,130.042278 L0.17181647,123.174812 Z" fill="#9B8069"></path>
                <path d="M85,86.7723389 L85,44.7533647 L85,1.05346692 L88.9548414,11.9934654 L88.9548414,91.090271 L88.9548414,94.1449661 L85,86.7723389 Z" fill="#5E4A39"></path>
            </g>
            <g id="Keyboard" transform="translate(109.000000, 148.000000)">
                <path d="M11.303858,58.3103855 C13.0514357,63.1716526 15.0484567,63.358373 15.0484567,63.358373 L17.8346599,61.9521427 L15.9171394,57.7691911 C15.9171394,57.7691911 9.55628034,53.4491184 11.303858,58.3103855 Z" id="LegBack" fill="#D7D7D7"></path>
                <path d="M39.3558587,47.1605631 C41.1034364,52.0218302 42.865303,51.3435148 42.865303,51.3435148 L44.3115573,50.4240532 L42.8653029,47.1605632 C42.8653029,47.1605632 37.6082811,42.2992961 39.3558587,47.1605631 Z" id="LegFront" fill="#D7D7D7"></path>
                <path d="M0.469796033,53.701412 L5.71885571,62.4587555 L35.4690489,49.5122438 C39.790498,47.6316614 48.4333962,43.8704965 48.4333962,43.8704965 L46.9143189,40.5977753 L0.469796033,53.701412 Z" id="Board" fill="#C6B8AC"></path>
                <path d="M46.913096,40.4618612 L46.913096,0.834425791 L48.3514106,5.26561008 L48.3514106,43.8654104 L46.913096,40.4618612 Z" id="Front" fill="#AA9D92"></path>
                <path d="M0.605833173,53.7407293 L0.605833173,47.7530431 L0.605833173,15.8178701 L46.8703672,0.809591457 L46.8703672,40.6129171 L0.605833173,53.7407293 Z" id="Waku" fill="#D3CAC2"></path>
                <path d="M6.61705827,20.7778564 L6.61705827,46.3314907 L37.8814435,36.8061192 L37.8814435,11.1661194 L6.61705827,20.7778564 Z" id="InWaku" fill="#686161"></path>
                <g id="KeyLine" transform="translate(8.000000, 20.000000)">
                    <g id="KeyTop" transform="translate(0.000000, 20.000000)">
                        <path d="M0.0309741857,2.97454834 L1.24552934,2.69760064 L2.36639408,2.4420166 L3.13933281,3.89194977 L0.228873229,3.89194977 L0.0309741857,2.97454834 Z" id="Path-37" fill="#D3CAC2"></path>
                        <path d="M0,0.658665597 L2.39738631,0.179519981 L2.39738631,2.45341048 L1.19869316,2.72144644 L0,2.9894824 L0,0.658665597 Z" id="Path-37" fill="#E1DCD8"></path>
                        <path d="M3.16214707,3.92882614 L2.38418874,2.4744132 L2.38418874,0.151777071 L3.16214707,0.0789715922 L3.16214707,3.92882614 Z" id="Path-38" fill="#A79382"></path>
                    </g>
                    <g id="KeyTop" transform="translate(0.000000, 15.000000)">
                        <path d="M0.0309741857,2.97454834 L1.24552934,2.69760064 L2.36639408,2.4420166 L3.13933281,3.89194977 L0.228873229,3.89194977 L0.0309741857,2.97454834 Z" id="Path-37" fill="#D3CAC2"></path>
                        <path d="M0,0.658665597 L2.39738631,0.179519981 L2.39738631,2.45341048 L1.19869316,2.72144644 L0,2.9894824 L0,0.658665597 Z" id="Path-37" fill="#E1DCD8"></path>
                        <path d="M3.16214707,3.92882614 L2.38418874,2.4744132 L2.38418874,0.151777071 L3.16214707,0.0789715922 L3.16214707,3.92882614 Z" id="Path-38" fill="#A79382"></path>
                    </g>
                    <g id="KeyTop" transform="translate(0.000000, 10.000000)">
                        <path d="M0.0309741857,2.97454834 L1.24552934,2.69760064 L2.36639408,2.4420166 L3.13933281,3.89194977 L0.228873229,3.89194977 L0.0309741857,2.97454834 Z" id="Path-37" fill="#D3CAC2"></path>
                        <path d="M0,0.658665597 L2.39738631,0.179519981 L2.39738631,2.45341048 L1.19869316,2.72144644 L0,2.9894824 L0,0.658665597 Z" id="Path-37" fill="#E1DCD8"></path>
                        <path d="M3.16214707,3.92882614 L2.38418874,2.4744132 L2.38418874,0.151777071 L3.16214707,0.0789715922 L3.16214707,3.92882614 Z" id="Path-38" fill="#A79382"></path>
                    </g>
                    <g id="KeyTop" transform="translate(0.000000, 5.000000)">
                        <path d="M0.0309741857,2.97454834 L1.24552934,2.69760064 L2.36639408,2.4420166 L3.13933281,3.89194977 L0.228873229,3.89194977 L0.0309741857,2.97454834 Z" id="Path-37" fill="#D3CAC2"></path>
                        <path d="M0,0.658665597 L2.39738631,0.179519981 L2.39738631,2.45341048 L1.19869316,2.72144644 L0,2.9894824 L0,0.658665597 Z" id="Path-37" fill="#E1DCD8"></path>
                        <path d="M3.16214707,3.92882614 L2.38418874,2.4744132 L2.38418874,0.151777071 L3.16214707,0.0789715922 L3.16214707,3.92882614 Z" id="Path-38" fill="#A79382"></path>
                    </g>
                    <g id="KeyTop">
                        <path d="M0.0309741857,2.97454834 L1.24552934,2.69760064 L2.36639408,2.4420166 L3.13933281,3.89194977 L0.228873229,3.89194977 L0.0309741857,2.97454834 Z" id="Path-37" fill="#D3CAC2"></path>
                        <path d="M0,0.658665597 L2.39738631,0.179519981 L2.39738631,2.45341048 L1.19869316,2.72144644 L0,2.9894824 L0,0.658665597 Z" id="Path-37" fill="#E1DCD8"></path>
                        <path d="M3.16214707,3.92882614 L2.38418874,2.4744132 L2.38418874,0.151777071 L3.16214707,0.0789715922 L3.16214707,3.92882614 Z" id="Path-38" fill="#A79382"></path>
                    </g>
                </g>
                <g id="KeyLine" transform="translate(13.000000, 18.399994)">
                    <g id="KeyTop" transform="translate(0.000000, 20.000000)">
                        <path d="M0.0309741857,2.97454834 L1.24552934,2.69760064 L2.36639408,2.4420166 L3.13933281,3.89194977 L0.228873229,3.89194977 L0.0309741857,2.97454834 Z" id="Path-37" fill="#D3CAC2"></path>
                        <path d="M0,0.658665597 L2.39738631,0.179519981 L2.39738631,2.45341048 L1.19869316,2.72144644 L0,2.9894824 L0,0.658665597 Z" id="Path-37" fill="#E1DCD8"></path>
                        <path d="M3.16214707,3.92882614 L2.38418874,2.4744132 L2.38418874,0.151777071 L3.16214707,0.0789715922 L3.16214707,3.92882614 Z" id="Path-38" fill="#A79382"></path>
                    </g>
                    <g id="KeyTop" transform="translate(0.000000, 15.000000)">
                        <path d="M0.0309741857,2.97454834 L1.24552934,2.69760064 L2.36639408,2.4420166 L3.13933281,3.89194977 L0.228873229,3.89194977 L0.0309741857,2.97454834 Z" id="Path-37" fill="#D3CAC2"></path>
                        <path d="M0,0.658665597 L2.39738631,0.179519981 L2.39738631,2.45341048 L1.19869316,2.72144644 L0,2.9894824 L0,0.658665597 Z" id="Path-37" fill="#E1DCD8"></path>
                        <path d="M3.16214707,3.92882614 L2.38418874,2.4744132 L2.38418874,0.151777071 L3.16214707,0.0789715922 L3.16214707,3.92882614 Z" id="Path-38" fill="#A79382"></path>
                    </g>
                    <g id="KeyTop" transform="translate(0.000000, 10.000000)">
                        <path d="M0.0309741857,2.97454834 L1.24552934,2.69760064 L2.36639408,2.4420166 L3.13933281,3.89194977 L0.228873229,3.89194977 L0.0309741857,2.97454834 Z" id="Path-37" fill="#D3CAC2"></path>
                        <path d="M0,0.658665597 L2.39738631,0.179519981 L2.39738631,2.45341048 L1.19869316,2.72144644 L0,2.9894824 L0,0.658665597 Z" id="Path-37" fill="#E1DCD8"></path>
                        <path d="M3.16214707,3.92882614 L2.38418874,2.4744132 L2.38418874,0.151777071 L3.16214707,0.0789715922 L3.16214707,3.92882614 Z" id="Path-38" fill="#A79382"></path>
                    </g>
                    <g id="KeyTop" transform="translate(0.000000, 5.000000)">
                        <path d="M0.0309741857,2.97454834 L1.24552934,2.69760064 L2.36639408,2.4420166 L3.13933281,3.89194977 L0.228873229,3.89194977 L0.0309741857,2.97454834 Z" id="Path-37" fill="#D3CAC2"></path>
                        <path d="M0,0.658665597 L2.39738631,0.179519981 L2.39738631,2.45341048 L1.19869316,2.72144644 L0,2.9894824 L0,0.658665597 Z" id="Path-37" fill="#E1DCD8"></path>
                        <path d="M3.16214707,3.92882614 L2.38418874,2.4744132 L2.38418874,0.151777071 L3.16214707,0.0789715922 L3.16214707,3.92882614 Z" id="Path-38" fill="#A79382"></path>
                    </g>
                    <g id="KeyTop">
                        <path d="M0.0309741857,2.97454834 L1.24552934,2.69760064 L2.36639408,2.4420166 L3.13933281,3.89194977 L0.228873229,3.89194977 L0.0309741857,2.97454834 Z" id="Path-37" fill="#D3CAC2"></path>
                        <path d="M0,0.658665597 L2.39738631,0.179519981 L2.39738631,2.45341048 L1.19869316,2.72144644 L0,2.9894824 L0,0.658665597 Z" id="Path-37" fill="#E1DCD8"></path>
                        <path d="M3.16214707,3.92882614 L2.38418874,2.4744132 L2.38418874,0.151777071 L3.16214707,0.0789715922 L3.16214707,3.92882614 Z" id="Path-38" fill="#A79382"></path>
                    </g>
                </g>
                <g id="KeyLine" transform="translate(18.000000, 16.799988)">
                    <g id="KeyTop" transform="translate(0.000000, 20.000000)">
                        <path d="M0.0309741857,2.97454834 L1.24552934,2.69760064 L2.36639408,2.4420166 L3.13933281,3.89194977 L0.228873229,3.89194977 L0.0309741857,2.97454834 Z" id="Path-37" fill="#D3CAC2"></path>
                        <path d="M0,0.658665597 L2.39738631,0.179519981 L2.39738631,2.45341048 L1.19869316,2.72144644 L0,2.9894824 L0,0.658665597 Z" id="Path-37" fill="#E1DCD8"></path>
                        <path d="M3.16214707,3.92882614 L2.38418874,2.4744132 L2.38418874,0.151777071 L3.16214707,0.0789715922 L3.16214707,3.92882614 Z" id="Path-38" fill="#A79382"></path>
                    </g>
                    <g id="KeyTop" transform="translate(0.000000, 15.000000)">
                        <path d="M0.0309741857,2.97454834 L1.24552934,2.69760064 L2.36639408,2.4420166 L3.13933281,3.89194977 L0.228873229,3.89194977 L0.0309741857,2.97454834 Z" id="Path-37" fill="#D3CAC2"></path>
                        <path d="M0,0.658665597 L2.39738631,0.179519981 L2.39738631,2.45341048 L1.19869316,2.72144644 L0,2.9894824 L0,0.658665597 Z" id="Path-37" fill="#E1DCD8"></path>
                        <path d="M3.16214707,3.92882614 L2.38418874,2.4744132 L2.38418874,0.151777071 L3.16214707,0.0789715922 L3.16214707,3.92882614 Z" id="Path-38" fill="#A79382"></path>
                    </g>
                    <g id="KeyTop" transform="translate(0.000000, 10.000000)">
                        <path d="M0.0309741857,2.97454834 L1.24552934,2.69760064 L2.36639408,2.4420166 L3.13933281,3.89194977 L0.228873229,3.89194977 L0.0309741857,2.97454834 Z" id="Path-37" fill="#D3CAC2"></path>
                        <path d="M0,0.658665597 L2.39738631,0.179519981 L2.39738631,2.45341048 L1.19869316,2.72144644 L0,2.9894824 L0,0.658665597 Z" id="Path-37" fill="#E1DCD8"></path>
                        <path d="M3.16214707,3.92882614 L2.38418874,2.4744132 L2.38418874,0.151777071 L3.16214707,0.0789715922 L3.16214707,3.92882614 Z" id="Path-38" fill="#A79382"></path>
                    </g>
                    <g id="KeyTop" transform="translate(0.000000, 5.000000)">
                        <path d="M0.0309741857,2.97454834 L1.24552934,2.69760064 L2.36639408,2.4420166 L3.13933281,3.89194977 L0.228873229,3.89194977 L0.0309741857,2.97454834 Z" id="Path-37" fill="#D3CAC2"></path>
                        <path d="M0,0.658665597 L2.39738631,0.179519981 L2.39738631,2.45341048 L1.19869316,2.72144644 L0,2.9894824 L0,0.658665597 Z" id="Path-37" fill="#E1DCD8"></path>
                        <path d="M3.16214707,3.92882614 L2.38418874,2.4744132 L2.38418874,0.151777071 L3.16214707,0.0789715922 L3.16214707,3.92882614 Z" id="Path-38" fill="#A79382"></path>
                    </g>
                    <g id="KeyTop">
                        <path d="M0.0309741857,2.97454834 L1.24552934,2.69760064 L2.36639408,2.4420166 L3.13933281,3.89194977 L0.228873229,3.89194977 L0.0309741857,2.97454834 Z" id="Path-37" fill="#D3CAC2"></path>
                        <path d="M0,0.658665597 L2.39738631,0.179519981 L2.39738631,2.45341048 L1.19869316,2.72144644 L0,2.9894824 L0,0.658665597 Z" id="Path-37" fill="#E1DCD8"></path>
                        <path d="M3.16214707,3.92882614 L2.38418874,2.4744132 L2.38418874,0.151777071 L3.16214707,0.0789715922 L3.16214707,3.92882614 Z" id="Path-38" fill="#A79382"></path>
                    </g>
                </g>
                <g id="KeyLine" transform="translate(23.000000, 15.299988)">
                    <g id="KeyTop" transform="translate(0.000000, 20.000000)">
                        <path d="M0.0309741857,2.97454834 L1.24552934,2.69760064 L2.36639408,2.4420166 L3.13933281,3.89194977 L0.228873229,3.89194977 L0.0309741857,2.97454834 Z" id="Path-37" fill="#D3CAC2"></path>
                        <path d="M0,0.658665597 L2.39738631,0.179519981 L2.39738631,2.45341048 L1.19869316,2.72144644 L0,2.9894824 L0,0.658665597 Z" id="Path-37" fill="#E1DCD8"></path>
                        <path d="M3.16214707,3.92882614 L2.38418874,2.4744132 L2.38418874,0.151777071 L3.16214707,0.0789715922 L3.16214707,3.92882614 Z" id="Path-38" fill="#A79382"></path>
                    </g>
                    <g id="KeyTop" transform="translate(0.000000, 15.000000)">
                        <path d="M0.0309741857,2.97454834 L1.24552934,2.69760064 L2.36639408,2.4420166 L3.13933281,3.89194977 L0.228873229,3.89194977 L0.0309741857,2.97454834 Z" id="Path-37" fill="#D3CAC2"></path>
                        <path d="M0,0.658665597 L2.39738631,0.179519981 L2.39738631,2.45341048 L1.19869316,2.72144644 L0,2.9894824 L0,0.658665597 Z" id="Path-37" fill="#E1DCD8"></path>
                        <path d="M3.16214707,3.92882614 L2.38418874,2.4744132 L2.38418874,0.151777071 L3.16214707,0.0789715922 L3.16214707,3.92882614 Z" id="Path-38" fill="#A79382"></path>
                    </g>
                    <g id="KeyTop" transform="translate(0.000000, 10.000000)">
                        <path d="M0.0309741857,2.97454834 L1.24552934,2.69760064 L2.36639408,2.4420166 L3.13933281,3.89194977 L0.228873229,3.89194977 L0.0309741857,2.97454834 Z" id="Path-37" fill="#D3CAC2"></path>
                        <path d="M0,0.658665597 L2.39738631,0.179519981 L2.39738631,2.45341048 L1.19869316,2.72144644 L0,2.9894824 L0,0.658665597 Z" id="Path-37" fill="#E1DCD8"></path>
                        <path d="M3.16214707,3.92882614 L2.38418874,2.4744132 L2.38418874,0.151777071 L3.16214707,0.0789715922 L3.16214707,3.92882614 Z" id="Path-38" fill="#A79382"></path>
                    </g>
                    <g id="KeyTop" transform="translate(0.000000, 5.000000)">
                        <path d="M0.0309741857,2.97454834 L1.24552934,2.69760064 L2.36639408,2.4420166 L3.13933281,3.89194977 L0.228873229,3.89194977 L0.0309741857,2.97454834 Z" id="Path-37" fill="#D3CAC2"></path>
                        <path d="M0,0.658665597 L2.39738631,0.179519981 L2.39738631,2.45341048 L1.19869316,2.72144644 L0,2.9894824 L0,0.658665597 Z" id="Path-37" fill="#E1DCD8"></path>
                        <path d="M3.16214707,3.92882614 L2.38418874,2.4744132 L2.38418874,0.151777071 L3.16214707,0.0789715922 L3.16214707,3.92882614 Z" id="Path-38" fill="#A79382"></path>
                    </g>
                    <g id="KeyTop">
                        <path d="M0.0309741857,2.97454834 L1.24552934,2.69760064 L2.36639408,2.4420166 L3.13933281,3.89194977 L0.228873229,3.89194977 L0.0309741857,2.97454834 Z" id="Path-37" fill="#D3CAC2"></path>
                        <path d="M0,0.658665597 L2.39738631,0.179519981 L2.39738631,2.45341048 L1.19869316,2.72144644 L0,2.9894824 L0,0.658665597 Z" id="Path-37" fill="#E1DCD8"></path>
                        <path d="M3.16214707,3.92882614 L2.38418874,2.4744132 L2.38418874,0.151777071 L3.16214707,0.0789715922 L3.16214707,3.92882614 Z" id="Path-38" fill="#A79382"></path>
                    </g>
                </g>
                <g id="KeyLine" transform="translate(28.000000, 13.700012)">
                    <g id="KeyTop" transform="translate(0.000000, 20.000000)">
                        <path d="M0.0309741857,2.97454834 L1.24552934,2.69760064 L2.36639408,2.4420166 L3.13933281,3.89194977 L0.228873229,3.89194977 L0.0309741857,2.97454834 Z" id="Path-37" fill="#D3CAC2"></path>
                        <path d="M0,0.658665597 L2.39738631,0.179519981 L2.39738631,2.45341048 L1.19869316,2.72144644 L0,2.9894824 L0,0.658665597 Z" id="Path-37" fill="#E1DCD8"></path>
                        <path d="M3.16214707,3.92882614 L2.38418874,2.4744132 L2.38418874,0.151777071 L3.16214707,0.0789715922 L3.16214707,3.92882614 Z" id="Path-38" fill="#A79382"></path>
                    </g>
                    <g id="KeyTop" transform="translate(0.000000, 15.000000)">
                        <path d="M0.0309741857,2.97454834 L1.24552934,2.69760064 L2.36639408,2.4420166 L3.13933281,3.89194977 L0.228873229,3.89194977 L0.0309741857,2.97454834 Z" id="Path-37" fill="#D3CAC2"></path>
                        <path d="M0,0.658665597 L2.39738631,0.179519981 L2.39738631,2.45341048 L1.19869316,2.72144644 L0,2.9894824 L0,0.658665597 Z" id="Path-37" fill="#E1DCD8"></path>
                        <path d="M3.16214707,3.92882614 L2.38418874,2.4744132 L2.38418874,0.151777071 L3.16214707,0.0789715922 L3.16214707,3.92882614 Z" id="Path-38" fill="#A79382"></path>
                    </g>
                    <g id="KeyTop" transform="translate(0.000000, 10.000000)">
                        <path d="M0.0309741857,2.97454834 L1.24552934,2.69760064 L2.36639408,2.4420166 L3.13933281,3.89194977 L0.228873229,3.89194977 L0.0309741857,2.97454834 Z" id="Path-37" fill="#D3CAC2"></path>
                        <path d="M0,0.658665597 L2.39738631,0.179519981 L2.39738631,2.45341048 L1.19869316,2.72144644 L0,2.9894824 L0,0.658665597 Z" id="Path-37" fill="#E1DCD8"></path>
                        <path d="M3.16214707,3.92882614 L2.38418874,2.4744132 L2.38418874,0.151777071 L3.16214707,0.0789715922 L3.16214707,3.92882614 Z" id="Path-38" fill="#A79382"></path>
                    </g>
                    <g id="KeyTop" transform="translate(0.000000, 5.000000)">
                        <path d="M0.0309741857,2.97454834 L1.24552934,2.69760064 L2.36639408,2.4420166 L3.13933281,3.89194977 L0.228873229,3.89194977 L0.0309741857,2.97454834 Z" id="Path-37" fill="#D3CAC2"></path>
                        <path d="M0,0.658665597 L2.39738631,0.179519981 L2.39738631,2.45341048 L1.19869316,2.72144644 L0,2.9894824 L0,0.658665597 Z" id="Path-37" fill="#E1DCD8"></path>
                        <path d="M3.16214707,3.92882614 L2.38418874,2.4744132 L2.38418874,0.151777071 L3.16214707,0.0789715922 L3.16214707,3.92882614 Z" id="Path-38" fill="#A79382"></path>
                    </g>
                    <g id="KeyTop">
                        <path d="M0.0309741857,2.97454834 L1.24552934,2.69760064 L2.36639408,2.4420166 L3.13933281,3.89194977 L0.228873229,3.89194977 L0.0309741857,2.97454834 Z" id="Path-37" fill="#D3CAC2"></path>
                        <path d="M0,0.658665597 L2.39738631,0.179519981 L2.39738631,2.45341048 L1.19869316,2.72144644 L0,2.9894824 L0,0.658665597 Z" id="Path-37" fill="#E1DCD8"></path>
                        <path d="M3.16214707,3.92882614 L2.38418874,2.4744132 L2.38418874,0.151777071 L3.16214707,0.0789715922 L3.16214707,3.92882614 Z" id="Path-38" fill="#A79382"></path>
                    </g>
                </g>
                <g id="KeyLine" transform="translate(33.000000, 12.000000)">
                    <g id="KeyTop" transform="translate(0.000000, 20.000000)">
                        <path d="M0.0309741857,2.97454834 L1.24552934,2.69760064 L2.36639408,2.4420166 L3.13933281,3.89194977 L0.228873229,3.89194977 L0.0309741857,2.97454834 Z" id="Path-37" fill="#D3CAC2"></path>
                        <path d="M0,0.658665597 L2.39738631,0.179519981 L2.39738631,2.45341048 L1.19869316,2.72144644 L0,2.9894824 L0,0.658665597 Z" id="Path-37" fill="#E1DCD8"></path>
                        <path d="M3.16214707,3.92882614 L2.38418874,2.4744132 L2.38418874,0.151777071 L3.16214707,0.0789715922 L3.16214707,3.92882614 Z" id="Path-38" fill="#A79382"></path>
                    </g>
                    <g id="KeyTop" transform="translate(0.000000, 15.000000)">
                        <path d="M0.0309741857,2.97454834 L1.24552934,2.69760064 L2.36639408,2.4420166 L3.13933281,3.89194977 L0.228873229,3.89194977 L0.0309741857,2.97454834 Z" id="Path-37" fill="#D3CAC2"></path>
                        <path d="M0,0.658665597 L2.39738631,0.179519981 L2.39738631,2.45341048 L1.19869316,2.72144644 L0,2.9894824 L0,0.658665597 Z" id="Path-37" fill="#E1DCD8"></path>
                        <path d="M3.16214707,3.92882614 L2.38418874,2.4744132 L2.38418874,0.151777071 L3.16214707,0.0789715922 L3.16214707,3.92882614 Z" id="Path-38" fill="#A79382"></path>
                    </g>
                    <g id="KeyTop" transform="translate(0.000000, 10.000000)">
                        <path d="M0.0309741857,2.97454834 L1.24552934,2.69760064 L2.36639408,2.4420166 L3.13933281,3.89194977 L0.228873229,3.89194977 L0.0309741857,2.97454834 Z" id="Path-37" fill="#D3CAC2"></path>
                        <path d="M0,0.658665597 L2.39738631,0.179519981 L2.39738631,2.45341048 L1.19869316,2.72144644 L0,2.9894824 L0,0.658665597 Z" id="Path-37" fill="#E1DCD8"></path>
                        <path d="M3.16214707,3.92882614 L2.38418874,2.4744132 L2.38418874,0.151777071 L3.16214707,0.0789715922 L3.16214707,3.92882614 Z" id="Path-38" fill="#A79382"></path>
                    </g>
                    <g id="KeyTop" transform="translate(0.000000, 5.000000)">
                        <path d="M0.0309741857,2.97454834 L1.24552934,2.69760064 L2.36639408,2.4420166 L3.13933281,3.89194977 L0.228873229,3.89194977 L0.0309741857,2.97454834 Z" id="Path-37" fill="#D3CAC2"></path>
                        <path d="M0,0.658665597 L2.39738631,0.179519981 L2.39738631,2.45341048 L1.19869316,2.72144644 L0,2.9894824 L0,0.658665597 Z" id="Path-37" fill="#E1DCD8"></path>
                        <path d="M3.16214707,3.92882614 L2.38418874,2.4744132 L2.38418874,0.151777071 L3.16214707,0.0789715922 L3.16214707,3.92882614 Z" id="Path-38" fill="#A79382"></path>
                    </g>
                    <g id="KeyTop">
                        <path d="M0.0309741857,2.97454834 L1.24552934,2.69760064 L2.36639408,2.4420166 L3.13933281,3.89194977 L0.228873229,3.89194977 L0.0309741857,2.97454834 Z" id="Path-37" fill="#D3CAC2"></path>
                        <path d="M0,0.658665597 L2.39738631,0.179519981 L2.39738631,2.45341048 L1.19869316,2.72144644 L0,2.9894824 L0,0.658665597 Z" id="Path-37" fill="#E1DCD8"></path>
                        <path d="M3.16214707,3.92882614 L2.38418874,2.4744132 L2.38418874,0.151777071 L3.16214707,0.0789715922 L3.16214707,3.92882614 Z" id="Path-38" fill="#A79382"></path>
                    </g>
                </g>
            </g>
            <g id="Bee" transform="translate(95.000000, 16.000000)">
                <path d="M106.764886,114.207599 C99.9142832,112.757048 89.6115956,117.601527 83.6325126,120.556123 C68.0029066,128.279576 46.9169441,149.25063 46.9169441,149.25063 C46.9169441,149.25063 83.5041645,129.509446 88.7962623,127.269398 C94.0883601,125.029349 104.152544,122.927205 107.519681,123.598596 C110.886819,124.269987 116.340914,116.235232 106.764886,114.207599 Z" id="ArmBack" fill="#723303"></path>
                <g id="Yasuri" transform="translate(190.050401, 90.075878) rotate(-31.000000) translate(-190.050401, -90.075878) translate(128.050401, 63.075878)">
                    <path d="M1.17584932,18.4823955 L122.695861,16.9159142 L122.695861,37.1872288 L1.17584932,37.1872283 L1.17584932,18.4823955 Z" id="Outline" fill="#BCBCBC" transform="translate(61.935855, 27.051572) rotate(-344.000000) translate(-61.935855, -27.051572) "></path>
                    <mask id="mask-2" fill="white">
                        <use xlink:href="#path-1"></use>
                    </mask>
                    <use id="MaskGizaGiza" fill="#E9E9E9" xlink:href="#path-1"></use>
                    <path d="M1.20537964,20.2399345 L6.89120713,2.20789298 L10.3241805,3.21038052 L11.0813493,22.4276809 L22.7884294,6.74743994 L22.7884301,26.4378109 L34.9725827,10.6090774 L34.9725827,29.5461883 L47.6924466,13.7417421 L47.6924466,32.7392902 L59.8247937,17.276639 L59.8247937,36.4762726 L70.7638921,20.8791694 L72.4712209,39.5863571 L82.9417791,24.356451 L83.7991933,43.217781 L94.7530126,27.1374797 L94.7530126,46.3942871 L105.674788,30.5085506 L106.894553,49.2396812 L118.508452,32.7392902 L122.827435,33.6738163 L116.295544,53.1437145 L112.383289,51.444347 L111.847831,31.2409935 L100.611503,47.807373 L99.9150991,28.5448627 L89.0207662,44.6340675 L89.0207662,25.2753009 L77.8243474,40.7141418 L77.0984868,22.4276809 L66.1810254,38.9066124 L65.1386403,18.9190693 L54.1483068,34.6129951 L54.1483068,15.1355028 L42.2186307,31.2409935 L41.328246,12.3157491 L29.1788186,27.1374797 L29.1788186,8.58627841 L17.330553,24.356451 L16.0069303,5.40275369 L4.63345996,20.8791685 L1.20537964,20.2399345 Z" id="GizaGiza" stroke-opacity="0.413128397" stroke="#707070" filter="url(#filter-3)" mask="url(#mask-2)"></path>
                </g>
                <g id="Group" transform="translate(49.000000, 201.000000)">
                    <mask id="mask-5" fill="white">
                        <use xlink:href="#path-4"></use>
                    </mask>
                    <use id="Mask" fill="#474747" xlink:href="#path-4"></use>
                    <path d="M45.5582267,43.5179926 C54.5955685,30.265154 71.0122329,2.68057498 71.0122329,2.68057498 L80.8580504,8.54832134 C80.8580504,8.54832134 60.2200339,34.5924339 50.4845665,46.6585947 C30.4085385,71.5408703 -10.7186576,121.172328 -10.7186576,121.172328 C-10.7186576,121.172328 28.0660122,69.1695059 45.5582267,43.5179926 Z" id="Path-30" fill="#8A8989" mask="url(#mask-5)"></path>
                    <path d="M52.8583013,43.3331937 C62.0118026,31.6668198 79.4618855,7.17891213 79.4618855,7.17891213 L85.7925282,11.7158191 C85.7925282,11.7158191 66.5101253,34.0646738 57.3755132,44.4904127 C34.9604833,70.0736828 -8.85639754,119.742846 -8.85639754,119.742846 C-8.85639754,119.742846 32.5723749,69.1881311 52.8583013,43.3331937 Z" id="Path-30" fill="#626161" mask="url(#mask-5)"></path>
                    <path d="M-3.38472402,107.087512 C9.17226299,90.7749897 27.2686127,62.5845716 37.0782027,47.2248528 C45.4010451,34.1930627 61.0868607,7.91733098 61.0868607,7.91733098 L65.5500336,12.1167554 C65.5500336,12.1167554 50.2738108,37.1467339 41.8335776,49.1291764 C30.9696556,64.5524851 12.0437585,92.5881309 -1.62667882,108.396976 C-9.45412483,117.448835 -16.7850078,120.12717 -16.7850078,120.12717 C-16.7850078,120.12717 -10.9428924,116.906173 -3.38472402,107.087512 Z" id="Path-30" fill="#71716E" mask="url(#mask-5)"></path>
                </g>
                <g id="Body" transform="translate(92.000000, 99.000000)">
                    <mask id="mask-7" fill="white">
                        <use xlink:href="#path-6"></use>
                    </mask>
                    <use id="Outline" fill="#FFCC00" xlink:href="#path-6"></use>
                    <path d="M-17.133276,15.7494053 L8.41145702,18.7866935 C8.41145702,18.7866935 5.94459682,29.2253684 9.53636737,35.9293808 C12.6152102,41.6760176 21.3291165,43.6534062 26.5044422,45.5334324 C37.9115809,49.6772721 50.4339976,46.2020992 57.2776935,41.8620109 C65.9401747,36.3684978 78.123862,18.7866935 78.123862,18.7866935 L83.2206638,25.9869565 C83.2206638,25.9869565 74.5532215,43.1232013 65.0038669,50.1838378 C59.8836501,53.9696423 43.849627,58.2426518 28.4111347,56.0142063 C20.4969941,54.8718519 9.89051055,50.6059729 5.2729549,45.5334324 C-1.09739808,38.5353851 0.0196227577,30.3994374 0.0196227577,30.3994374 L-3.05331616,41.8620114 C-3.05331616,41.8620114 -1.32294111,53.5488143 7.11499782,59.2576565 C12.8900299,63.1648603 21.5880038,65.0978731 29.5012455,66.1882633 C43.8426914,68.1644159 61.5546774,62.4947143 65.0038693,60.0564374 C76.0712903,52.2327394 86.2134183,35.9293813 86.2134183,35.9293813 L92.0344632,41.8620109 C92.0344632,41.8620109 82.2422016,59.3217506 72.1669834,67.4772834 C65.8739907,72.5712385 45.2012243,77.1740238 29.5012455,76.0258488 C9.89931159,74.592315 -3.05331616,59.2576565 -3.05331616,59.2576565 L-1.23612599,70.7910771 C-1.23612599,70.7910771 10.114258,83.5012358 29.5012455,84.6216358 C44.9941748,85.516993 66.9988293,81.704246 72.1669864,77.5027126 C77.3351435,73.3011793 87.3035724,59.257656 87.3035724,59.257656 L88.6106579,69.2280072 C88.6106579,69.2280072 83.2206668,77.6894612 72.1669864,86.6155018 C67.5929514,90.3091153 46.4225615,94.516481 31.2098293,93.6623387 C9.65924903,92.4523481 -1.23612599,81.9696736 -1.23612599,81.9696736 C-1.23612599,81.9696736 -3.16319935,90.6456754 3.3159885,91.8863758 C6.53846405,92.503448 17.8480176,101.349839 33.8456096,102.155968 C47.8163606,102.859963 68.8093368,97.7715969 72.1669864,95.5458988 C80.5892443,89.9630044 83.2206662,81.9696759 83.2206662,81.9696759 L88.6106579,86.6155042 C88.6106579,86.6155042 64.0951453,124.086231 46.3407834,122.333716 C43.3844843,122.041903 13.7630513,137.021003 13.7630513,137.021003 L3.31598784,97.8607244 L-17.133276,15.7494053 Z" id="Issust" fill="#30662B" mask="url(#mask-7)"></path>
                </g>
                <g id="Neck" transform="translate(102.000000, 78.000000)" fill="#723302">
                    <path d="M15.6189597,7.66337256 L12.2714818,5.53244752 L7.98335832,4 L4.33048543,7.66337256 L2,10.8439402 L5.65064912,13.014581 L9.69786646,14.4828172 L13.8770262,10.8439405 L15.6189597,7.66337256 Z" id="1" transform="translate(8.809480, 9.241409) rotate(-37.000000) translate(-8.809480, -9.241409) "></path>
                    <path d="M22.0450298,11.7555398 L18.6975519,9.62461472 L14.4094284,8.09216721 L10.7565555,11.7555398 L8.4260701,14.9361074 L12.0767192,17.1067482 L16.1239366,18.5749844 L20.3030963,14.9361077 L22.0450298,11.7555398 Z" id="2" transform="translate(15.235550, 13.333576) rotate(-32.000000) translate(-15.235550, -13.333576) "></path>
                    <path d="M27.6847006,17.1550426 L24.3372227,15.0241176 L20.0490992,13.49167 L16.3962263,17.1550426 L14.0657408,20.3356102 L17.71639,22.5062511 L21.7636073,23.9744872 L25.9427671,20.3356105 L27.6847006,17.1550426 Z" id="3" transform="translate(20.875221, 18.733079) rotate(-14.000000) translate(-20.875221, -18.733079) "></path>
                    <path d="M30.5446242,24.1685304 L27.1971463,22.0376054 L22.9090228,20.5051579 L19.2561499,24.1685304 L16.9256645,27.349098 L20.5763136,29.5197389 L25.531716,27.3490981 L28.8026907,27.3490984 L30.5446242,24.1685304 Z" id="4" transform="translate(23.735144, 25.012448) rotate(-11.000000) translate(-23.735144, -25.012448) "></path>
                </g>
                <g id="Syokkaku" fill="#707070">
                    <path d="M75.9949299,23.9613646 L37.2022374,12.6217674 L26.2868462,48.4028081 L11.8743932,48.4028081 L15.3229139,74.6951393 L26.2868459,74.6951393 L26.2868459,62.0744842 L42.4531057,62.0744842 L42.3201461,73.5913607 L51.4141958,73.5913604 L58.2141544,51.3722504 L42.4531057,48.4028076 L42.4531057,23.9613651 L72.358463,27.6793798 L75.9949299,23.9613646 Z" id="Back" transform="translate(43.934662, 43.658453) rotate(-326.000000) translate(-43.934662, -43.658453) "></path>
                </g>
                <g id="Face" transform="translate(62.000000, 42.000000)">
                    <mask id="mask-9" fill="white">
                        <use xlink:href="#path-8"></use>
                    </mask>
                    <use id="Outline" fill="#FFCC00" xlink:href="#path-8"></use>
                    <path d="M-1.91704798,47.915915 L23.7630639,39.3536592 L26.8298898,46.852797 L1.01346874,56.4781709 L-1.91704798,47.915915 Z" id="Mouse" fill="#FFFFFF" mask="url(#mask-9)"></path>
                    <circle id="Eye" stroke="#000000" stroke-width="2" fill="#000000" mask="url(#mask-9)" cx="18" cy="23" r="11"></circle>
                    <path d="M8.7926656,5.90341704 L22.830742,3.48906653 L33.1504651,5.90341704 L50.4649508,20.7243945 L48.409628,40.0389189 L75.0104116,33.1865629 L62.3425095,-13.741099 L11.8277475,-9.95030206 L8.7926656,5.90341704 Z" id="Path-128" fill="#C49705" mask="url(#mask-9)"></path>
                </g>
                <path d="M76.4697269,48.7693515 L34.5074099,34.8838963 L23.5920187,70.6649371 L9.17956576,70.6649371 L12.6280864,96.9572682 L23.5920185,96.9572682 L23.5920185,84.3366132 L39.7582782,84.3366132 L39.6253186,95.8534897 L48.7193683,95.8534894 L55.519327,73.6343793 L39.7582782,70.6649365 L39.7582782,46.223494 L74.251427,52.3952126 L76.4697269,48.7693515 Z" id="SyokkakuFront" fill="#BBBBBB"></path>
                <g id="Yasuri" transform="translate(136.000000, 106.000000)">
                    <path d="M1.17584932,18.4823955 L122.695861,16.9159142 L122.695861,37.1872288 L1.17584932,37.1872283 L1.17584932,18.4823955 Z" id="Outline" fill="#BCBCBC" transform="translate(61.935855, 27.051572) rotate(-344.000000) translate(-61.935855, -27.051572) "></path>
                    <mask id="mask-11" fill="white">
                        <use xlink:href="#path-10"></use>
                    </mask>
                    <use id="MaskGizaGiza" fill="#E9E9E9" xlink:href="#path-10"></use>
                    <path d="M1.20537964,20.2399345 L6.89120713,2.20789298 L10.3241805,3.21038052 L11.0813493,22.4276809 L22.7884294,6.74743994 L22.7884301,26.4378109 L34.9725827,10.6090774 L34.9725827,29.5461883 L47.6924466,13.7417421 L47.6924466,32.7392902 L59.8247937,17.276639 L59.8247937,36.4762726 L70.7638921,20.8791694 L72.4712209,39.5863571 L82.9417791,24.356451 L83.7991933,43.217781 L94.7530126,27.1374797 L94.7530126,46.3942871 L105.674788,30.5085506 L106.894553,49.2396812 L118.508452,32.7392902 L122.827435,33.6738163 L116.295544,53.1437145 L112.383289,51.444347 L111.847831,31.2409935 L100.611503,47.807373 L99.9150991,28.5448627 L89.0207662,44.6340675 L89.0207662,25.2753009 L77.8243474,40.7141418 L77.0984868,22.4276809 L66.1810254,38.9066124 L65.1386403,18.9190693 L54.1483068,34.6129951 L54.1483068,15.1355028 L42.2186307,31.2409935 L41.328246,12.3157491 L29.1788186,27.1374797 L29.1788186,8.58627841 L17.330553,24.356451 L16.0069303,5.40275369 L4.63345996,20.8791685 L1.20537964,20.2399345 Z" id="GizaGiza" stroke-opacity="0.413128397" stroke="#707070" filter="url(#filter-12)" mask="url(#mask-11)"></path>
                </g>
                <path d="M125.708842,127.859951 C120.435454,131.075861 115.876169,151.995678 96.8502407,157.564337 C77.8243122,163.132996 51.0182351,162.347628 50.6282549,162.672611 C48.5398613,164.412939 87.4073397,166.613029 101.874975,162.672611 C116.34261,158.732193 130.039915,139.806721 131.218466,135.354018 C132.397017,130.901314 130.982229,124.644041 125.708842,127.859951 Z" id="ArnFront" fill="#723303"></path>
            </g>
        </g>
    </g>
</svg>